HIERARCHY
ROOT Hips
{
	OFFSET 0.000000 0.000000 0.000000 
	CHANNELS 6 Xposition Yposition Zposition Zrotation Yrotation Xrotation
	JOINT LeftUpLeg
	{
		OFFSET 1.363060 -1.794630 0.839290 
		CHANNELS 3 Zrotation Yrotation Xrotation
		JOINT LeftLeg
		{
			OFFSET 2.448110 -6.726130 0.000000 
			CHANNELS 3 Zrotation Yrotation Xrotation
			JOINT LeftFoot
			{
				OFFSET 2.562200 -7.039590 0.000000 
				CHANNELS 3 Zrotation Yrotation Xrotation
				JOINT LeftToeBase
				{
					OFFSET 0.157640 -0.433110 2.322550 
					CHANNELS 3 Zrotation Yrotation Xrotation
					End Site
					{
						OFFSET 0.000000 0.000000 0.000000 
					}
				}
			}
		}
	}
	JOINT RightUpLeg
	{
		OFFSET -1.305520 -1.794630 0.839290 
		CHANNELS 3 Zrotation Yrotation Xrotation
		JOINT RightLeg
		{
			OFFSET -2.542530 -6.985550 0.000000 
			CHANNELS 3 Zrotation Yrotation Xrotation
			JOINT RightFoot
			{
				OFFSET -2.568260 -7.056230 0.000000 
				CHANNELS 3 Zrotation Yrotation Xrotation
				JOINT RightToeBase
				{
					OFFSET -0.164730 -0.452590 2.363150 
					CHANNELS 3 Zrotation Yrotation Xrotation
					End Site
					{
						OFFSET 0.000000 0.000000 0.000000 
					}
				}
			}
		}
	}
	JOINT Spine
	{
		OFFSET 0.028270 2.035590 -0.193380 
		CHANNELS 3 Zrotation Yrotation Xrotation
		JOINT Spine1
		{
			OFFSET 0.056720 2.048850 -0.042750 
			CHANNELS 3 Zrotation Yrotation Xrotation
			JOINT Neck1
			{
				OFFSET -0.054170 1.746240 0.172020 
				CHANNELS 3 Zrotation Yrotation Xrotation
				JOINT Head
				{
					OFFSET 0.104070 1.761360 -0.123970 
					CHANNELS 3 Zrotation Yrotation Xrotation
					End Site
					{
						OFFSET 0.000000 0.000000 0.000000 
					}
				}
			}
			JOINT LeftArm
			{
				OFFSET 3.362410 1.200890 -0.311210 
				CHANNELS 3 Zrotation Yrotation Xrotation
				JOINT LeftForeArm
				{
					OFFSET 4.983000 -0.000000 -0.000000 
					CHANNELS 3 Zrotation Yrotation Xrotation
					JOINT LeftHand
					{
						OFFSET 3.483560 -0.000000 -0.000000 
						CHANNELS 3 Zrotation Yrotation Xrotation
						JOINT LeftHandIndex1
						{
							OFFSET 0.715260 -0.000000 -0.000000 
							CHANNELS 3 Zrotation Yrotation Xrotation
							End Site
							{
								OFFSET 0.000000 0.000000 0.000000 
							}
						}
					}
				}
			}
			JOINT RightArm
			{
				OFFSET -3.136600 1.374050 -0.404650 
				CHANNELS 3 Zrotation Yrotation Xrotation
				JOINT RightForeArm
				{
					OFFSET -5.241900 -0.000000 -0.000000 
					CHANNELS 3 Zrotation Yrotation Xrotation
					JOINT RightHand
					{
						OFFSET -3.444170 -0.000000 -0.000000 
						CHANNELS 3 Zrotation Yrotation Xrotation
						JOINT RightHandIndex1
						{
							OFFSET -0.622530 -0.000000 -0.000000 
							CHANNELS 3 Zrotation Yrotation Xrotation
							End Site
							{
								OFFSET 0.000000 0.000000 0.000000 
							}
						}
					}
				}
			}
		}
	}
}
MOTION
Frames: 6
Frame Time: 0.041667
-29.174941 17.468514 -0.279193 166.425365 75.092476 166.690270 -22.016037 -5.560417 -1.479395 0.293790 9.866521 23.512342 -1.095002 8.528516 -13.349553 0.013700 0.756800 2.079900 19.983442 -2.450586 2.152417 -1.702470 -10.327699 26.429072 -1.143622 -14.983670 -35.052792 -0.988900 -6.329300 17.743100 -0.278524 3.632789 -0.587190 -0.155524 2.114939 6.411309 -2.645028 25.487888 12.542910 -3.519100 12.773400 13.019100 -80.389677 -5.199060 27.725173 6.059344 -19.527832 -1.719805 -0.563782 0.250006 -2.821192 -7.125000 0.000000 0.000000 72.935534 0.463967 27.284569 -8.656520 20.877259 -2.704469 1.377132 0.391790 -5.890899 7.125000 0.000000 0.000000 
-29.174835 17.471368 -0.278981 166.595175 75.126186 166.905997 -21.949915 -5.600263 -1.546366 0.301478 9.883556 23.566498 -1.110930 8.589905 -13.338690 0.012400 0.719100 1.976200 20.064686 -2.360003 2.119641 -1.687318 -10.306436 26.344815 -1.108572 -15.146126 -35.003449 -0.999500 -6.362000 17.838600 -0.256943 3.573452 -0.604170 -0.103823 2.082594 6.405412 -2.786692 25.513384 12.417013 -3.592800 12.785000 12.922800 -81.481096 -8.586002 17.089922 2.184016 -13.588034 -0.841677 -0.668182 0.475709 7.744376 -7.125000 0.000000 0.000000 72.876269 0.565559 27.180751 -8.509080 20.685166 -2.639664 1.366328 0.377837 -5.609320 7.125000 0.000000 0.000000 
-29.174941 17.473377 -0.278664 166.605242 75.157429 166.977282 -21.918638 -5.615544 -1.658281 0.313154 9.914316 23.652998 -1.117553 8.613852 -13.328083 0.013200 0.742000 2.039100 20.086393 -2.318540 2.078998 -1.673094 -10.277973 26.251135 -1.094639 -15.220640 -34.991375 -0.988900 -6.329400 17.743300 -0.255671 3.553840 -0.625629 -0.109732 2.074745 6.367671 -2.778898 25.511539 12.461602 -3.592700 12.788300 12.947600 -81.476381 -9.098797 15.456004 1.439873 -12.406344 -0.712153 -0.795858 0.499280 9.708271 -7.125000 0.000000 0.000000 72.866506 0.485343 27.220007 -8.544928 20.727391 -2.643561 1.363037 0.377053 -5.626587 7.125000 0.000000 0.000000 
-29.172932 17.472108 -0.276655 166.812918 75.159375 167.191613 -21.832713 -5.576489 -1.733599 0.326418 9.938194 23.735572 -1.108663 8.573715 -13.322186 0.013400 0.748200 2.056300 20.195330 -2.226653 2.127555 -1.655907 -10.253864 26.160929 -1.080643 -15.376845 -35.071794 -0.953900 -6.219600 17.422800 -0.259444 3.503353 -0.640826 -0.176396 2.054720 6.318237 -2.749871 25.537393 12.491716 -3.580500 12.806000 12.966800 -81.195830 -8.441678 18.877248 1.836989 -13.187390 -0.786451 -0.925047 0.434922 7.766557 -7.125000 0.000000 0.000000 72.911631 0.365525 27.398506 -8.636763 20.847954 -2.672615 1.364954 0.381015 -5.784166 7.125000 0.000000 0.000000 
-29.168809 17.470417 -0.273378 167.218404 75.100466 167.532852 -21.716919 -5.563982 -1.704885 0.340993 9.955662 23.813294 -1.082110 8.456031 -13.289351 0.013800 0.758800 2.085300 20.383497 -2.106536 2.295450 -1.636988 -10.235015 26.080980 -1.073494 -15.571991 -35.243961 -0.950800 -6.209500 17.393600 -0.253509 3.449532 -0.641789 -0.201312 2.031811 6.270734 -2.765338 25.564522 12.448067 -3.594800 12.825700 12.929400 -80.876408 -7.025400 24.478764 2.860969 -14.941624 -0.977829 -1.038968 0.321327 4.421057 -7.125000 0.000000 0.000000 72.949498 0.322981 27.479290 -8.646796 20.864153 -2.677453 1.369356 0.371930 -5.894651 7.125000 0.000000 0.000000 
-29.168492 17.469254 -0.270735 167.424746 75.083379 167.730313 -21.660618 -5.642678 -1.687556 0.349634 9.971015 23.868910 -1.071746 8.410739 -13.280897 0.015300 0.799300 2.196600 20.496082 -2.015005 2.366167 -1.623598 -10.219222 26.016588 -1.068716 -15.680055 -35.334708 -0.972500 -6.278100 17.593500 -0.241692 3.449232 -0.640851 -0.125503 2.034134 6.230414 -2.698215 25.588966 12.421321 -3.547500 12.835600 12.867500 -80.070081 -3.809607 33.391637 5.633823 -19.127576 -1.567180 -1.036445 0.092658 0.499680 -7.125000 0.000000 0.000000 72.895820 0.342231 27.518336 -8.608741 20.809015 -2.657145 1.371772 0.349044 -6.064052 7.125000 0.000000 0.000000 
